<svg width="23" height="23" viewBox="0 0 245 348" fill="none" xmlns="http://www.w3.org/2000/svg">
<path d="M122.526 0C54.8653 0 0 54.9149 0 122.637C0 174.017 31.6294 218.021 76.4122 236.257L72.0107 248.705C64.6919 249.371 58.0896 254.135 55.4794 261.512L34.0861 322.267C30.5546 332.307 35.8774 343.372 45.8575 346.907C55.8377 350.441 66.9438 345.114 70.4752 335.125L91.8686 274.37C94.4276 267.044 92.278 259.207 87.0577 254.135L91.5615 241.38C101.644 243.992 112.034 245.324 122.474 245.324C190.135 245.324 245 190.409 245 122.688C245 54.9662 190.135 0 122.526 0ZM122.526 164.54C141.053 164.54 156.714 152.502 162.241 135.853H201.548C195.253 173.863 162.293 202.857 122.526 202.857C78.3058 202.857 42.4285 166.948 42.4285 122.688C42.4285 78.428 78.3058 42.5181 122.526 42.5181C162.293 42.5181 195.253 71.5124 201.548 109.523H162.241C156.714 92.8739 141.053 80.8356 122.526 80.8356C99.3921 80.8356 80.6601 99.5846 80.6601 122.739C80.6601 145.893 99.3921 164.54 122.526 164.54Z" fill="white"/>
</svg>
